<svg version="1.1"
     id="logo-svg"
     xmlns="http://www.w3.org/2000/svg"
     xmlns:xlink="http://www.w3.org/1999/xlink"
     x="0px" y="0px"
     viewBox="0 8.5 275 108.5"
     width='200'
     preserveAspectRatio="xMinYMin meet"
     xml:space="preserve">

  <style type="text/css">
   .logo_letters{fill:#228;}
   .trapezoid {fill:#bbf;}
  </style>

  <g id="Trapezoid">
    <polygon class="trapezoid" points="247,108.5 24,108.5 0,0 275,0"/>
  </g>

  <g id="Pa">
    <g>
      <g>
        <path class="logo_letters" d="M29.9,53.7c0,0.8,0,1.8,0.3,2.4c0.5,1.1,1.7,1.2,2.7,1.3l0.7,0v1.1H23.1v-1.1l0.3,0
                                      c1-0.1,2-0.2,2.4-1.2c0.4-0.8,0.4-2,0.4-3V38.6c0-1.9-0.2-3.3-2.7-3.5l-0.5,0V34h11.8c2.1,0,4.2,0.2,6,1.3c2,1.2,3.1,3.2,3.1,5.5
                                      c0,2.1-0.9,4.1-2.6,5.4c-1.8,1.4-4.4,1.6-6.6,1.6h-5V53.7z M34.3,46.4c1.8,0,3.4-0.1,4.7-1.5c1.1-1.2,1.4-2.5,1.4-4.1
                                      c0-1.5-0.5-3.1-1.7-4.1c-1.2-1-2.8-1.3-4.3-1.3c-0.9,0-3.3,0.1-4,0.7c-0.5,0.3-0.5,1.1-0.5,1.7v8.6H34.3z"/>
        <path class="logo_letters" d="M81.3,57.6c-0.9,0.8-2.3,1.2-3.5,1.2h-0.1c-1.8,0-3.4-0.8-3.9-2.6c-2.1,1.7-4.1,2.6-6.8,2.6
                                      c-2.5,0-5.5-1.4-5.5-4.2c0-2.4,1.5-3.6,3.6-4.5c1.9-0.9,4-1.3,6-1.5l2.7-0.3v-2.6c-0.1-1.1-0.3-2.1-1.3-2.7
                                      c-0.9-0.6-2.2-0.8-3.2-0.8c-1.1,0-3.5,0.5-3.5,1.9v0.5c0,1.2-0.5,2.2-1.8,2.2c-0.9,0-1.7-0.7-1.7-1.6c0-1.5,1.7-2.8,2.9-3.4
                                      c1.5-0.6,3.5-1,5.1-1h0.1c1.5,0,3.4,0.5,4.7,1.2c1.9,1,2.1,2.4,2.1,4.4v7.1c0,1.5,0.2,3.8,2,3.8c0.5,0,1-0.3,1.5-0.5L81.3,57.6z
                                      M73.7,49.5c-2.7,0.3-8.6,1-8.6,4.6c0,1.8,1.5,2.9,3.3,2.9c1.9,0,3.9-1.2,5.4-2.4V49.5z"/>
      </g>
    </g>
  </g>
</svg>
